<?xml version="1.0" encoding="UTF-8" standalone="no"?>
<svg
   xmlns:dc="http://purl.org/dc/elements/1.1/"
   xmlns:cc="http://creativecommons.org/ns#"
   xmlns:rdf="http://www.w3.org/1999/02/22-rdf-syntax-ns#"
   xmlns:svg="http://www.w3.org/2000/svg"
   xmlns="http://www.w3.org/2000/svg"
   xmlns:xlink="http://www.w3.org/1999/xlink"
   xmlns:sodipodi="http://sodipodi.sourceforge.net/DTD/sodipodi-0.dtd"
   xmlns:inkscape="http://www.inkscape.org/namespaces/inkscape"
   id="svg2"
   viewBox="-250 -250 500 500"
   version="1.0"
   inkscape:version="0.48.4 r9939"
   width="100%"
   height="100%"
   sodipodi:docname="app_icon.svg"
   inkscape:export-filename="/home/ian/Development/MobileDarts/static/app_icon256.png"
   inkscape:export-xdpi="46.080002"
   inkscape:export-ydpi="46.080002">
  <sodipodi:namedview
     pagecolor="#ffffff"
     bordercolor="#666666"
     borderopacity="1"
     objecttolerance="10"
     gridtolerance="10"
     guidetolerance="10"
     inkscape:pageopacity="0"
     inkscape:pageshadow="2"
     inkscape:window-width="467"
     inkscape:window-height="372"
     id="namedview3351"
     showgrid="false"
     inkscape:zoom="0.6675088"
     inkscape:cx="263.03127"
     inkscape:cy="212.14727"
     inkscape:window-x="2252"
     inkscape:window-y="72"
     inkscape:window-maximized="0"
     inkscape:current-layer="svg2" />
  <defs
     id="defs6">
    <line
       id="refwire"
       y2="167.4"
       y1="16.2"
       stroke="#c0c0c0"
       x2="26.52"
       x1="2.566" />
    <path
       id="SLICE"
       stroke-width="0"
       d="m0 0l15.64 98.77c-10.362 1.64-20.918 1.64-31.28 0l15.64-98.77z" />
    <use
       id="double"
       xlink:href="#SLICE"
       transform="scale(1.695)"
       height="500"
       width="500"
       y="0"
       x="0" />
    <use
       id="outer"
       xlink:href="#SLICE"
       transform="scale(1.605)"
       height="500"
       width="500"
       y="0"
       x="0" />
    <use
       id="triple"
       xlink:href="#SLICE"
       transform="scale(1.065)"
       height="500"
       width="500"
       y="0"
       x="0" />
    <use
       id="inner"
       xlink:href="#SLICE"
       transform="scale(.975)"
       height="500"
       width="500"
       y="0"
       x="0" />
  </defs>
  <g
     id="g14"
     transform="matrix(1.104 0 0 -1.104 -1.3036 -.48743)">
    <circle
       id="circle16"
       cy="0"
       cx="0"
       r="226"
       d="M 226,0 C 226,124.81635 124.81635,226 0,226 -124.81635,226 -226,124.81635 -226,0 c 0,-124.81635 101.18365,-226 226,-226 124.81635,0 226,101.18365 226,226 z" />
    <g
       id="dartboard">
      <g
         id="g19">
        <use
           id="use21"
           xlink:href="#double"
           height="500"
           width="500"
           y="0"
           x="0"
           fill="#ff0000" />
        <use
           id="use23"
           xlink:href="#outer"
           height="500"
           width="500"
           y="0"
           x="0"
           fill="#000000" />
        <use
           id="use25"
           xlink:href="#triple"
           height="500"
           width="500"
           y="0"
           x="0"
           fill="#ff0000" />
        <use
           id="use27"
           xlink:href="#inner"
           height="500"
           width="500"
           y="0"
           x="0"
           fill="#000000" />
      </g>
      <g
         id="g29"
         transform="rotate(18)">
        <use
           id="use31"
           xlink:href="#double"
           height="500"
           width="500"
           y="0"
           x="0"
           fill="#008000" />
        <use
           id="use33"
           xlink:href="#outer"
           height="500"
           width="500"
           y="0"
           x="0"
           fill="#ffffff" />
        <use
           id="use35"
           xlink:href="#triple"
           height="500"
           width="500"
           y="0"
           x="0"
           fill="#008000" />
        <use
           id="use37"
           xlink:href="#inner"
           height="500"
           width="500"
           y="0"
           x="0"
           fill="#ffffff" />
      </g>
      <g
         id="g39"
         transform="rotate(36)">
        <use
           id="use41"
           xlink:href="#double"
           height="500"
           width="500"
           y="0"
           x="0"
           fill="#ff0000" />
        <use
           id="use43"
           xlink:href="#outer"
           height="500"
           width="500"
           y="0"
           x="0"
           fill="#000000" />
        <use
           id="use45"
           xlink:href="#triple"
           height="500"
           width="500"
           y="0"
           x="0"
           fill="#ff0000" />
        <use
           id="use47"
           xlink:href="#inner"
           height="500"
           width="500"
           y="0"
           x="0"
           fill="#000000" />
      </g>
      <g
         id="g49"
         transform="rotate(54)">
        <use
           id="use51"
           xlink:href="#double"
           height="500"
           width="500"
           y="0"
           x="0"
           fill="#008000" />
        <use
           id="use53"
           xlink:href="#outer"
           height="500"
           width="500"
           y="0"
           x="0"
           fill="#ffffff" />
        <use
           id="use55"
           xlink:href="#triple"
           height="500"
           width="500"
           y="0"
           x="0"
           fill="#008000" />
        <use
           id="use57"
           xlink:href="#inner"
           height="500"
           width="500"
           y="0"
           x="0"
           fill="#ffffff" />
      </g>
      <g
         id="g59"
         transform="rotate(72.001)">
        <use
           id="use61"
           xlink:href="#double"
           height="500"
           width="500"
           y="0"
           x="0"
           fill="#ff0000" />
        <use
           id="use63"
           xlink:href="#outer"
           height="500"
           width="500"
           y="0"
           x="0"
           fill="#000000" />
        <use
           id="use65"
           xlink:href="#triple"
           height="500"
           width="500"
           y="0"
           x="0"
           fill="#ff0000" />
        <use
           id="use67"
           xlink:href="#inner"
           height="500"
           width="500"
           y="0"
           x="0"
           fill="#000000" />
      </g>
      <g
         id="g69"
         transform="rotate(90)">
        <use
           id="use71"
           xlink:href="#double"
           height="500"
           width="500"
           y="0"
           x="0"
           fill="#008000" />
        <use
           id="use73"
           xlink:href="#outer"
           height="500"
           width="500"
           y="0"
           x="0"
           fill="#ffffff" />
        <use
           id="use75"
           xlink:href="#triple"
           height="500"
           width="500"
           y="0"
           x="0"
           fill="#008000" />
        <use
           id="use77"
           xlink:href="#inner"
           height="500"
           width="500"
           y="0"
           x="0"
           fill="#ffffff" />
      </g>
      <g
         id="g79"
         transform="rotate(108)">
        <use
           id="use81"
           xlink:href="#double"
           height="500"
           width="500"
           y="0"
           x="0"
           fill="#ff0000" />
        <use
           id="use83"
           xlink:href="#outer"
           height="500"
           width="500"
           y="0"
           x="0"
           fill="#000000" />
        <use
           id="use85"
           xlink:href="#triple"
           height="500"
           width="500"
           y="0"
           x="0"
           fill="#ff0000" />
        <use
           id="use87"
           xlink:href="#inner"
           height="500"
           width="500"
           y="0"
           x="0"
           fill="#000000" />
      </g>
      <g
         id="g89"
         transform="rotate(126)">
        <use
           id="use91"
           xlink:href="#double"
           height="500"
           width="500"
           y="0"
           x="0"
           fill="#008000" />
        <use
           id="use93"
           xlink:href="#outer"
           height="500"
           width="500"
           y="0"
           x="0"
           fill="#ffffff" />
        <use
           id="use95"
           xlink:href="#triple"
           height="500"
           width="500"
           y="0"
           x="0"
           fill="#008000" />
        <use
           id="use97"
           xlink:href="#inner"
           height="500"
           width="500"
           y="0"
           x="0"
           fill="#ffffff" />
      </g>
      <g
         id="g99"
         transform="rotate(144)">
        <use
           id="use101"
           xlink:href="#double"
           height="500"
           width="500"
           y="0"
           x="0"
           fill="#ff0000" />
        <use
           id="use103"
           xlink:href="#outer"
           height="500"
           width="500"
           y="0"
           x="0"
           fill="#000000" />
        <use
           id="use105"
           xlink:href="#triple"
           height="500"
           width="500"
           y="0"
           x="0"
           fill="#ff0000" />
        <use
           id="use107"
           xlink:href="#inner"
           height="500"
           width="500"
           y="0"
           x="0"
           fill="#000000" />
      </g>
      <g
         id="g109"
         transform="rotate(162)">
        <use
           id="use111"
           xlink:href="#double"
           height="500"
           width="500"
           y="0"
           x="0"
           fill="#008000" />
        <use
           id="use113"
           xlink:href="#outer"
           height="500"
           width="500"
           y="0"
           x="0"
           fill="#ffffff" />
        <use
           id="use115"
           xlink:href="#triple"
           height="500"
           width="500"
           y="0"
           x="0"
           fill="#008000" />
        <use
           id="use117"
           xlink:href="#inner"
           height="500"
           width="500"
           y="0"
           x="0"
           fill="#ffffff" />
      </g>
      <g
         id="g119"
         transform="scale(-1)">
        <use
           id="use121"
           xlink:href="#double"
           height="500"
           width="500"
           y="0"
           x="0"
           fill="#ff0000" />
        <use
           id="use123"
           xlink:href="#outer"
           height="500"
           width="500"
           y="0"
           x="0"
           fill="#000000" />
        <use
           id="use125"
           xlink:href="#triple"
           height="500"
           width="500"
           y="0"
           x="0"
           fill="#ff0000" />
        <use
           id="use127"
           xlink:href="#inner"
           height="500"
           width="500"
           y="0"
           x="0"
           fill="#000000" />
      </g>
      <g
         id="g129"
         transform="rotate(198)">
        <use
           id="use131"
           xlink:href="#double"
           height="500"
           width="500"
           y="0"
           x="0"
           fill="#008000" />
        <use
           id="use133"
           xlink:href="#outer"
           height="500"
           width="500"
           y="0"
           x="0"
           fill="#ffffff" />
        <use
           id="use135"
           xlink:href="#triple"
           height="500"
           width="500"
           y="0"
           x="0"
           fill="#008000" />
        <use
           id="use137"
           xlink:href="#inner"
           height="500"
           width="500"
           y="0"
           x="0"
           fill="#ffffff" />
      </g>
      <g
         id="g139"
         transform="rotate(216)">
        <use
           id="use141"
           xlink:href="#double"
           height="500"
           width="500"
           y="0"
           x="0"
           fill="#ff0000" />
        <use
           id="use143"
           xlink:href="#outer"
           height="500"
           width="500"
           y="0"
           x="0"
           fill="#000000" />
        <use
           id="use145"
           xlink:href="#triple"
           height="500"
           width="500"
           y="0"
           x="0"
           fill="#ff0000" />
        <use
           id="use147"
           xlink:href="#inner"
           height="500"
           width="500"
           y="0"
           x="0"
           fill="#000000" />
      </g>
      <g
         id="g149"
         transform="rotate(234)">
        <use
           id="use151"
           xlink:href="#double"
           height="500"
           width="500"
           y="0"
           x="0"
           fill="#008000" />
        <use
           id="use153"
           xlink:href="#outer"
           height="500"
           width="500"
           y="0"
           x="0"
           fill="#ffffff" />
        <use
           id="use155"
           xlink:href="#triple"
           height="500"
           width="500"
           y="0"
           x="0"
           fill="#008000" />
        <use
           id="use157"
           xlink:href="#inner"
           height="500"
           width="500"
           y="0"
           x="0"
           fill="#ffffff" />
      </g>
      <g
         id="g159"
         transform="rotate(252)">
        <use
           id="use161"
           xlink:href="#double"
           height="500"
           width="500"
           y="0"
           x="0"
           fill="#ff0000" />
        <use
           id="use163"
           xlink:href="#outer"
           height="500"
           width="500"
           y="0"
           x="0"
           fill="#000000" />
        <use
           id="use165"
           xlink:href="#triple"
           height="500"
           width="500"
           y="0"
           x="0"
           fill="#ff0000" />
        <use
           id="use167"
           xlink:href="#inner"
           height="500"
           width="500"
           y="0"
           x="0"
           fill="#000000" />
      </g>
      <g
         id="g169"
         transform="rotate(-90)">
        <use
           id="use171"
           xlink:href="#double"
           height="500"
           width="500"
           y="0"
           x="0"
           fill="#008000" />
        <use
           id="use173"
           xlink:href="#outer"
           height="500"
           width="500"
           y="0"
           x="0"
           fill="#ffffff" />
        <use
           id="use175"
           xlink:href="#triple"
           height="500"
           width="500"
           y="0"
           x="0"
           fill="#008000" />
        <use
           id="use177"
           xlink:href="#inner"
           height="500"
           width="500"
           y="0"
           x="0"
           fill="#ffffff" />
      </g>
      <g
         id="g179"
         transform="rotate(-72.001)">
        <use
           id="use181"
           xlink:href="#double"
           height="500"
           width="500"
           y="0"
           x="0"
           fill="#ff0000" />
        <use
           id="use183"
           xlink:href="#outer"
           height="500"
           width="500"
           y="0"
           x="0"
           fill="#000000" />
        <use
           id="use185"
           xlink:href="#triple"
           height="500"
           width="500"
           y="0"
           x="0"
           fill="#ff0000" />
        <use
           id="use187"
           xlink:href="#inner"
           height="500"
           width="500"
           y="0"
           x="0"
           fill="#000000" />
      </g>
      <g
         id="g189"
         transform="rotate(-54)">
        <use
           id="use191"
           xlink:href="#double"
           height="500"
           width="500"
           y="0"
           x="0"
           fill="#008000" />
        <use
           id="use193"
           xlink:href="#outer"
           height="500"
           width="500"
           y="0"
           x="0"
           fill="#ffffff" />
        <use
           id="use195"
           xlink:href="#triple"
           height="500"
           width="500"
           y="0"
           x="0"
           fill="#008000" />
        <use
           id="use197"
           xlink:href="#inner"
           height="500"
           width="500"
           y="0"
           x="0"
           fill="#ffffff" />
      </g>
      <g
         id="g199"
         transform="rotate(-36)">
        <use
           id="use201"
           xlink:href="#double"
           height="500"
           width="500"
           y="0"
           x="0"
           fill="#ff0000" />
        <use
           id="use203"
           xlink:href="#outer"
           height="500"
           width="500"
           y="0"
           x="0"
           fill="#000000" />
        <use
           id="use205"
           xlink:href="#triple"
           height="500"
           width="500"
           y="0"
           x="0"
           fill="#ff0000" />
        <use
           id="use207"
           xlink:href="#inner"
           height="500"
           width="500"
           y="0"
           x="0"
           fill="#000000" />
      </g>
      <g
         id="g209"
         transform="rotate(-18)">
        <use
           id="use211"
           xlink:href="#double"
           height="500"
           width="500"
           y="0"
           x="0"
           fill="#008000" />
        <use
           id="use213"
           xlink:href="#outer"
           height="500"
           width="500"
           y="0"
           x="0"
           fill="#ffffff" />
        <use
           id="use215"
           xlink:href="#triple"
           height="500"
           width="500"
           y="0"
           x="0"
           fill="#008000" />
        <use
           id="use217"
           xlink:href="#inner"
           height="500"
           width="500"
           y="0"
           x="0"
           fill="#ffffff" />
      </g>
      <circle
         id="circle219"
         stroke-width="0"
         cy="0"
         cx="0"
         r="16.4"
         fill="#008000"
         d="M 16.4,0 C 16.4,9.0574697 9.0574697,16.4 0,16.4 -9.0574697,16.4 -16.4,9.0574697 -16.4,0 c 0,-9.0574697 7.3425303,-16.4 16.4,-16.4 9.0574697,0 16.4,7.3425303 16.4,16.4 z" />
      <circle
         id="circle221"
         stroke-width="0"
         cy="0"
         cx="0"
         r="6.85"
         fill="#f00"
         d="M 6.8499999,0 C 6.8499999,3.7831505 3.7831505,6.8499999 0,6.8499999 -3.7831505,6.8499999 -6.8499999,3.7831505 -6.8499999,0 c 0,-3.7831505 3.0668494,-6.8499999 6.8499999,-6.8499999 3.7831505,0 6.8499999,3.0668494 6.8499999,6.8499999 z" />
      <g
         id="grid">
        <use
           id="use224"
           xlink:href="#refwire"
           height="500"
           width="500"
           y="0"
           x="0" />
        <use
           id="use226"
           xlink:href="#refwire"
           transform="rotate(18)"
           height="500"
           width="500"
           y="0"
           x="0" />
        <use
           id="use228"
           xlink:href="#refwire"
           transform="rotate(36)"
           height="500"
           width="500"
           y="0"
           x="0" />
        <use
           id="use230"
           xlink:href="#refwire"
           transform="rotate(54)"
           height="500"
           width="500"
           y="0"
           x="0" />
        <use
           id="use232"
           xlink:href="#refwire"
           transform="rotate(72.001)"
           height="500"
           width="500"
           y="0"
           x="0" />
        <use
           id="use234"
           xlink:href="#refwire"
           transform="rotate(90)"
           height="500"
           width="500"
           y="0"
           x="0" />
        <use
           id="use236"
           xlink:href="#refwire"
           transform="rotate(108)"
           height="500"
           width="500"
           y="0"
           x="0" />
        <use
           id="use238"
           xlink:href="#refwire"
           transform="rotate(126)"
           height="500"
           width="500"
           y="0"
           x="0" />
        <use
           id="use240"
           xlink:href="#refwire"
           transform="rotate(144)"
           height="500"
           width="500"
           y="0"
           x="0" />
        <use
           id="use242"
           xlink:href="#refwire"
           transform="rotate(162)"
           height="500"
           width="500"
           y="0"
           x="0" />
        <use
           id="use244"
           xlink:href="#refwire"
           transform="scale(-1)"
           height="500"
           width="500"
           y="0"
           x="0" />
        <use
           id="use246"
           xlink:href="#refwire"
           transform="rotate(198)"
           height="500"
           width="500"
           y="0"
           x="0" />
        <use
           id="use248"
           xlink:href="#refwire"
           transform="rotate(216)"
           height="500"
           width="500"
           y="0"
           x="0" />
        <use
           id="use250"
           xlink:href="#refwire"
           transform="rotate(234)"
           height="500"
           width="500"
           y="0"
           x="0" />
        <use
           id="use252"
           xlink:href="#refwire"
           transform="rotate(252)"
           height="500"
           width="500"
           y="0"
           x="0" />
        <use
           id="use254"
           xlink:href="#refwire"
           transform="rotate(-90)"
           height="500"
           width="500"
           y="0"
           x="0" />
        <use
           id="use256"
           xlink:href="#refwire"
           transform="rotate(-72.001)"
           height="500"
           width="500"
           y="0"
           x="0" />
        <use
           id="use258"
           xlink:href="#refwire"
           transform="rotate(-54)"
           height="500"
           width="500"
           y="0"
           x="0" />
        <use
           id="use260"
           xlink:href="#refwire"
           transform="rotate(-36)"
           height="500"
           width="500"
           y="0"
           x="0" />
        <use
           id="use262"
           xlink:href="#refwire"
           transform="rotate(-18)"
           height="500"
           width="500"
           y="0"
           x="0" />
        <circle
           id="circle264"
           cx="0"
           cy="0"
           stroke="#c0c0c0"
           r="169.5"
           fill="none"
           d="M 169.5,0 C 169.5,93.612265 93.612265,169.5 0,169.5 -93.612265,169.5 -169.5,93.612265 -169.5,0 c 0,-93.612265 75.887735,-169.5 169.5,-169.5 93.612265,0 169.5,75.887735 169.5,169.5 z" />
        <circle
           id="circle266"
           cx="0"
           cy="0"
           stroke="#c0c0c0"
           r="160.5"
           fill="none"
           d="M 160.5,0 C 160.5,88.641702 88.641702,160.5 0,160.5 -88.641702,160.5 -160.5,88.641702 -160.5,0 c 0,-88.641702 71.858298,-160.5 160.5,-160.5 88.641702,0 160.5,71.858298 160.5,160.5 z" />
        <circle
           id="circle268"
           cx="0"
           cy="0"
           stroke="#c0c0c0"
           r="106.5"
           fill="none"
           d="M 106.5,0 C 106.5,58.818326 58.818326,106.5 0,106.5 -58.818326,106.5 -106.5,58.818326 -106.5,0 c 0,-58.818326 47.681674,-106.5 106.5,-106.5 58.818326,0 106.5,47.681674 106.5,106.5 z" />
        <circle
           id="circle270"
           cx="0"
           cy="0"
           stroke="#c0c0c0"
           r="97.5"
           fill="none"
           d="M 97.5,0 C 97.5,53.847763 53.847763,97.5 0,97.5 -53.847763,97.5 -97.5,53.847763 -97.5,0 c 0,-53.847763 43.652237,-97.5 97.5,-97.5 53.847763,0 97.5,43.652237 97.5,97.5 z" />
        <circle
           id="circle272"
           cx="0"
           cy="0"
           stroke="#c0c0c0"
           r="16.4"
           fill="none"
           d="M 16.4,0 C 16.4,9.0574697 9.0574697,16.4 0,16.4 -9.0574697,16.4 -16.4,9.0574697 -16.4,0 c 0,-9.0574697 7.3425303,-16.4 16.4,-16.4 9.0574697,0 16.4,7.3425303 16.4,16.4 z" />
        <circle
           id="circle274"
           cx="0"
           cy="0"
           stroke="#c0c0c0"
           r="6.85"
           fill="none"
           d="M 6.8499999,0 C 6.8499999,3.7831505 3.7831505,6.8499999 0,6.8499999 -3.7831505,6.8499999 -6.8499999,3.7831505 -6.8499999,0 c 0,-3.7831505 3.0668494,-6.8499999 6.8499999,-6.8499999 3.7831505,0 6.8499999,3.0668494 6.8499999,6.8499999 z" />
      </g>
    </g>
  </g>
  <metadata
     id="metadata3349">
    <rdf:RDF>
      <cc:Work>
        <dc:format>image/svg+xml</dc:format>
        <dc:type
           rdf:resource="http://purl.org/dc/dcmitype/StillImage" />
        <cc:license
           rdf:resource="http://creativecommons.org/licenses/publicdomain/" />
        <dc:publisher>
          <cc:Agent
             rdf:about="http://openclipart.org/">
            <dc:title>Openclipart</dc:title>
          </cc:Agent>
        </dc:publisher>
        <dc:title>dartboard</dc:title>
        <dc:date>2008-02-05T01:36:24</dc:date>
        <dc:description>activity, activity, clip art, clipart, dartboard, dartboard, darts, darts, game, game, image, media, png, public domain, recreation, recreation, sport, sport, svg, </dc:description>
        <dc:source>http://openclipart.org/detail/12737/dartboard-by-anonymous-12737</dc:source>
        <dc:creator>
          <cc:Agent>
            <dc:title>Anonymous</dc:title>
          </cc:Agent>
        </dc:creator>
        <dc:subject>
          <rdf:Bag>
            <rdf:li>activity</rdf:li>
            <rdf:li>clip art</rdf:li>
            <rdf:li>clipart</rdf:li>
            <rdf:li>dartboard</rdf:li>
            <rdf:li>darts</rdf:li>
            <rdf:li>game</rdf:li>
            <rdf:li>image</rdf:li>
            <rdf:li>media</rdf:li>
            <rdf:li>png</rdf:li>
            <rdf:li>public domain</rdf:li>
            <rdf:li>recreation</rdf:li>
            <rdf:li>sport</rdf:li>
            <rdf:li>svg</rdf:li>
          </rdf:Bag>
        </dc:subject>
      </cc:Work>
      <cc:License
         rdf:about="http://creativecommons.org/licenses/publicdomain/">
        <cc:permits
           rdf:resource="http://creativecommons.org/ns#Reproduction" />
        <cc:permits
           rdf:resource="http://creativecommons.org/ns#Distribution" />
        <cc:permits
           rdf:resource="http://creativecommons.org/ns#DerivativeWorks" />
      </cc:License>
    </rdf:RDF>
  </metadata>
</svg>
